HIERARCHY
ROOT joint_Root
{
	OFFSET 0.0 0.0 0.0
	CHANNELS 6 Xposition Yposition Zposition Zrotation Xrotation Yrotation 
	JOINT Hips
	{
		OFFSET 4.5925 91.4895 -427.239
		CHANNELS 6 Xposition Yposition Zposition Zrotation Xrotation Yrotation 
		JOINT Spine
		{
			OFFSET 15.7357 0.0 0.0
			CHANNELS 6 Xposition Yposition Zposition Zrotation Xrotation Yrotation 
			JOINT Chest
			{
				OFFSET 8.98455 -0.406207 0.0
				CHANNELS 6 Xposition Yposition Zposition Zrotation Xrotation Yrotation 
				JOINT Neck
				{
					OFFSET 16.3773 0.0 0.0
					CHANNELS 6 Xposition Yposition Zposition Zrotation Xrotation Yrotation 
					JOINT Head
					{
						OFFSET 6.45672 0.0 0.0
						CHANNELS 6 Xposition Yposition Zposition Zrotation Xrotation Yrotation 
						End Site
						{
							OFFSET 0.0 0.0 0.0
						}
					}
				}
				JOINT Shoulder_L
				{
					OFFSET 12.9942 -0.242716 4.98039
					CHANNELS 6 Xposition Yposition Zposition Zrotation Xrotation Yrotation 
					JOINT UpperArm_L
					{
						OFFSET 5.34809 0.0 0.0
						CHANNELS 6 Xposition Yposition Zposition Zrotation Xrotation Yrotation 
						JOINT LowerArm_L
						{
							OFFSET 24.3286 1.87007e-05 0.0
							CHANNELS 6 Xposition Yposition Zposition Zrotation Xrotation Yrotation 
							JOINT Hand_L
							{
								OFFSET 22.2916 0.0 0.0
								CHANNELS 6 Xposition Yposition Zposition Zrotation Xrotation Yrotation 
								End Site
								{
									OFFSET 0.0 0.0 0.0
								}
							}
						}
					}
				}
				JOINT Shoulder_R
				{
					OFFSET 12.9945 -0.242716 -4.98039
					CHANNELS 6 Xposition Yposition Zposition Zrotation Xrotation Yrotation 
					JOINT UpperArm_R
					{
						OFFSET -5.34813 0.0 0.0
						CHANNELS 6 Xposition Yposition Zposition Zrotation Xrotation Yrotation 
						JOINT LowerArm_R
						{
							OFFSET -24.3289 0.000322201 0.0
							CHANNELS 6 Xposition Yposition Zposition Zrotation Xrotation Yrotation 
							JOINT Hand_R
							{
								OFFSET -22.2915 -0.000108084 0.0
								CHANNELS 6 Xposition Yposition Zposition Zrotation Xrotation Yrotation 
								End Site
								{
									OFFSET 0.0 0.0 0.0
								}
							}
						}
					}
				}
			}
		}
		JOINT UpperLeg_L
		{
			OFFSET -2.19248 -6.46944 0.0
			CHANNELS 6 Xposition Yposition Zposition Zrotation Xrotation Yrotation 
			JOINT LowerLeg_L
			{
				OFFSET 39.0811 0.0 -1.23785e-05
				CHANNELS 6 Xposition Yposition Zposition Zrotation Xrotation Yrotation 
				JOINT Foot_L
				{
					OFFSET 40.9854 0.0 -1.26872e-05
					CHANNELS 6 Xposition Yposition Zposition Zrotation Xrotation Yrotation 
					JOINT Toes_L
					{
						OFFSET 11.7543 0.0 0.0
						CHANNELS 6 Xposition Yposition Zposition Zrotation Xrotation Yrotation 
						End Site
						{
							OFFSET 0.0 0.0 0.0
						}
					}
				}
			}
		}
		JOINT UpperLeg_R
		{
			OFFSET -2.19251 6.46944 0.0
			CHANNELS 6 Xposition Yposition Zposition Zrotation Xrotation Yrotation 
			JOINT LowerLeg_R
			{
				OFFSET -39.0811 -0.00228153 -0.0401928
				CHANNELS 6 Xposition Yposition Zposition Zrotation Xrotation Yrotation 
				JOINT Foot_R
				{
					OFFSET -40.9854 0.0 0.0
					CHANNELS 6 Xposition Yposition Zposition Zrotation Xrotation Yrotation 
					JOINT Toes_R
					{
						OFFSET -11.7543 0.0 0.0
						CHANNELS 6 Xposition Yposition Zposition Zrotation Xrotation Yrotation 
						End Site
						{
							OFFSET 0.0 0.0 0.0
						}
					}
				}
			}
		}
	}
}
MOTION
Frames:	4
Frame Time:	0.0333333
0.000000 0.000000 0.000000 0.000000 0.000000 -0.000000 -0.467292 90.866400 -507.158000 84.538900 -1.305450 -3.965080 15.735700 0.000005 -0.000001 59.567500 81.719200 -57.570900 8.984550 -0.406207 -0.000000 6.718720 -8.380920 4.487270 16.377300 -0.000001 -0.000001 3.594600 -0.846045 0.679967 6.456720 -0.000001 -0.000000 -2.713490 3.623040 1.656150 12.994200 -0.242716 4.980390 -85.635900 -10.677700 -67.614300 5.348090 -0.000007 -0.000001 -49.229800 12.002300 -59.738200 24.328600 0.000019 0.000005 7.443790 -6.330260 -130.162000 22.291600 -0.000001 0.000005 4.686550 5.449090 -4.606640 12.994500 -0.242716 -4.980390 92.107000 -6.416600 -71.779000 -5.348130 -0.000001 -0.000004 -63.042500 31.571000 34.242500 -24.328900 0.000322 -0.000009 -3.646150 -0.592084 -80.785300 -22.291500 -0.000108 -0.000004 17.491100 5.635660 -13.772700 -2.192480 -6.469440 -0.000000 -174.797000 -14.484100 -0.574095 39.081100 -0.000007 -0.000012 -0.176878 0.453871 21.291600 40.985400 -0.000006 -0.000013 3.131040 4.711210 -75.125900 11.754300 -0.000000 0.000003 -0.000345 -0.005614 -16.805500 -2.192510 6.469440 -0.000001 -171.862000 9.236590 143.705000 -39.081100 -0.002282 -0.040193 -0.002541 0.005415 46.963700 -40.985400 0.000008 0.000006 2.069210 -1.428410 -60.770100 -11.754300 -0.000006 -0.000006 -0.018899 -0.161111 -23.153500
0.000000 0.000000 0.000000 0.000000 0.000000 -0.000000 -0.283044 89.549900 -504.015000 85.785400 -1.303100 -3.415360 15.735700 0.000005 -0.000001 61.398800 81.218700 -59.804400 8.984550 -0.406207 -0.000000 7.835550 -8.372380 3.764290 16.377300 -0.000001 -0.000001 2.397360 -0.887366 0.885592 6.456720 -0.000001 -0.000000 -3.845150 3.604720 2.272210 12.994200 -0.242716 4.980390 -86.494600 -9.008330 -68.636000 5.348090 -0.000007 -0.000001 -47.714500 14.482100 -58.972800 24.328600 0.000019 0.000005 8.277000 -6.782590 -129.072000 22.291600 -0.000001 0.000005 4.390860 5.451420 -4.689890 12.994500 -0.242716 -4.980390 91.150000 -3.660020 -72.551600 -5.348130 -0.000001 -0.000004 -62.040800 27.792800 32.457800 -24.328900 0.000322 -0.000009 -3.127720 -0.412065 -82.495600 -22.291500 -0.000108 -0.000004 17.714000 5.631700 -13.464300 -2.192480 -6.469440 -0.000000 -176.015000 -12.073100 1.248540 39.081100 -0.000007 -0.000012 -0.231066 0.531491 23.497400 40.985400 -0.000006 -0.000013 2.678180 2.562990 -78.556300 11.754300 -0.000000 0.000003 -0.000030 -0.000501 -16.597800 -2.192510 6.469440 -0.000001 -171.250000 11.389900 141.847000 -39.081100 -0.002282 -0.040193 -0.013572 0.020998 38.751900 -40.985400 0.000008 0.000006 0.228561 2.353920 -60.325400 -11.754300 -0.000006 -0.000006 -0.017848 -0.155066 -22.904700
0.000000 0.000000 0.000000 0.000000 0.000000 -0.000000 -0.223018 88.098200 -500.591000 87.084300 -1.472460 -2.763560 15.735700 0.000005 -0.000001 64.117300 80.631100 -63.040600 8.984550 -0.406207 -0.000000 9.238820 -8.121590 2.811740 16.377300 -0.000001 -0.000001 0.307429 -1.287830 1.657090 6.456720 -0.000001 -0.000000 -4.824280 4.108390 2.640450 12.994200 -0.242716 4.980390 -87.882000 -5.927540 -70.309600 5.348090 -0.000007 -0.000001 -45.359400 17.440100 -57.227300 24.328600 0.000019 0.000005 8.874820 -6.751750 -126.979000 22.291600 -0.000001 0.000005 4.737500 5.464310 -5.157320 12.994500 -0.242716 -4.980390 89.766000 0.803015 -73.683800 -5.348130 -0.000001 -0.000004 -60.779000 23.717000 28.776000 -24.328900 0.000322 -0.000009 -2.485470 -0.330419 -82.420900 -22.291500 -0.000108 -0.000004 18.430500 5.634580 -13.678300 -2.192480 -6.469440 -0.000000 -177.185000 -11.315600 3.920720 39.081100 -0.000007 -0.000012 -0.082231 0.176599 24.968500 40.985400 -0.000006 -0.000013 4.724810 1.320640 -82.183200 11.754300 -0.000000 0.000003 -0.001617 -0.023818 -17.545300 -2.192510 6.469440 -0.000001 -170.779000 12.708500 140.214000 -39.081100 -0.002282 -0.040193 -0.025007 0.044506 32.455000 -40.985400 0.000008 0.000006 -1.325450 5.471240 -59.935900 -11.754300 -0.000006 -0.000006 -0.018452 -0.158558 -23.048400
0.000000 0.000000 0.000000 0.000000 0.000000 -0.000000 -0.449598 86.716500 -496.591000 87.596600 -1.267220 -2.557940 15.735700 0.000005 -0.000001 65.875000 80.357800 -64.922200 8.984550 -0.406207 -0.000000 9.968530 -7.815040 2.589070 16.377300 -0.000001 -0.000001 -1.269450 -1.205090 1.702510 6.456720 -0.000001 -0.000000 -5.297470 3.593160 3.771480 12.994200 -0.242716 4.980390 -89.109900 -2.787380 -72.288000 5.348090 -0.000007 -0.000001 -44.727200 22.472500 -52.656400 24.328600 0.000019 0.000005 9.767700 -6.128920 -121.810000 22.291600 -0.000001 0.000005 5.756020 5.482690 -5.844560 12.994500 -0.242716 -4.980390 88.477700 5.898450 -75.487400 -5.348130 -0.000001 -0.000004 -59.984800 19.910900 23.744400 -24.328900 0.000322 -0.000009 -2.642130 -0.432904 -80.698300 -22.291500 -0.000108 -0.000004 19.909300 5.640740 -14.184100 -2.192480 -6.469440 -0.000000 -176.821000 -11.297700 5.923440 39.081100 -0.000007 -0.000012 -0.015743 0.030500 27.301400 40.985400 -0.000006 -0.000013 5.356400 2.095540 -83.766700 11.754300 -0.000000 0.000003 -0.006955 -0.079286 -19.804400 -2.192510 6.469440 -0.000001 -169.098000 14.085800 138.166000 -39.081100 -0.002282 -0.040193 -0.027306 0.051327 30.807400 -40.985400 0.000008 0.000006 -0.731372 4.284060 -61.337400 -11.754300 -0.000006 -0.000006 -0.018082 -0.156421 -22.960500
